{
  "source": "C:\\Users\\Peter\\Desktop\\stuff\\MIUN\\quantitative_research\\video_compression\\videos\\BVI-HD\\RockWater_1920x1080_30fps.mp4",
  "output": "C:\\Users\\Peter\\Desktop\\stuff\\MIUN\\quantitative_research\\video_compression\\compressed_videos\\BVI-HD\\av1\\2\\RockWater_1920x1080_30fps_av1.mkv",
  "codec": "av1",
  "ok": "Input #0, mov,mp4,m4a,3gp,3g2,mj2, from 'C:\\Users\\Peter\\Desktop\\stuff\\MIUN\\quantitative_research\\video_compression\\videos\\BVI-HD\\RockWater_1920x1080_30fps.mp4':\n  Metadata:\n    major_brand     : isom\n    minor_version   : 512\n    compatible_brands: isomiso2avc1mp41\n    encoder         : Lavf54.28.101\n  Duration: 00:00:05.00, start: 0.000000, bitrate: 245943 kb/s\n  Stream #0:0[0x1](und): Video: h264 (High 4:4:4 Predictive) (avc1 / 0x31637661), yuv420p(progressive), 1920x1080, 245940 kb/s, 30 fps, 30 tbr, 30 tbn (default)\n    Metadata:\n      handler_name    : VideoHandler\n      vendor_id       : [0][0][0][0]\n[out#0/matroska @ 0000027087f60d00] Codec AVOption b:a (set bitrate (in bits/s)) has not been used for any stream. The most likely reason is either wrong type (e.g. a video option with no video streams) or that it is a private option of some decoder which was not actually used for any stream.\nStream mapping:\n  Stream #0:0 -> #0:0 (h264 (native) -> av1 (libsvtav1))\nPress [q] to stop, [?] for help\nSvt[info]: -------------------------------------------\nSvt[info]: SVT [version]:\tSVT-AV1 Encoder Lib v3.1.0-19-g6ecfe8ec\nSvt[info]: SVT [build]  :\tGCC 15.2.0\t 64 bit\nSvt[info]: LIB Build date: Aug 17 2025 11:37:13\nSvt[info]: -------------------------------------------\nSvt[info]: Level of Parallelism: 5\nSvt[info]: Number of PPCS 93\nSvt[info]: [asm level on system : up to avx2]\nSvt[info]: [asm level selected : up to avx2]\nSvt[info]: -------------------------------------------\nSvt[info]: SVT [config]: main profile\ttier (auto)\tlevel (auto)\nSvt[info]: SVT [config]: width / height / fps numerator / fps denominator \t\t: 1920 / 1080 / 30 / 1\nSvt[info]: SVT [config]: bit-depth / color format \t\t\t\t\t: 8 / YUV420\nSvt[info]: SVT [config]: preset / tune / pred struct \t\t\t\t\t: 4 / PSNR / random access\nSvt[info]: SVT [config]: gop size / mini-gop size / key-frame type \t\t\t: 161 / 16 / key frame\nSvt[info]: SVT [config]: BRC mode / target bitrate (kbps)\t\t\t\t: VBR / 2000 \nSvt[info]: SVT [config]: AQ mode / Variance Boost \t\t\t\t\t: 2 / 0\nSvt[info]: SVT [config]: sharpness / luminance-based QP bias \t\t\t\t: 0 / 0\nSvt[info]: SVT [config]: QP scale compress strength \t\t\t\t\t: 0\nSvt[info]: -------------------------------------------\nOutput #0, matroska, to 'C:\\Users\\Peter\\Desktop\\stuff\\MIUN\\quantitative_research\\video_compression\\compressed_videos\\BVI-HD\\av1\\2\\RockWater_1920x1080_30fps_av1.mkv':\n  Metadata:\n    major_brand     : isom\n    minor_version   : 512\n    compatible_brands: isomiso2avc1mp41\n    encoder         : Lavf62.3.100\n  Stream #0:0(und): Video: av1 (AV01 / 0x31305641), yuv420p(tv, progressive), 1920x1080, q=2-31, 2000 kb/s, 30 fps, 1k tbn (default)\n    Metadata:\n      encoder         : Lavc62.11.100 libsvtav1\n      handler_name    : VideoHandler\n      vendor_id       : [0][0][0][0]\n    Side data:\n      cpb: bitrate max/min/avg: 0/0/2000000 buffer size: 2000000 vbv_delay: N/A\nframe=    0 fps=0.0 q=0.0 size=       0KiB time=N/A bitrate=N/A speed=N/A elapsed=0:00:00.52    \nframe=    0 fps=0.0 q=0.0 size=       0KiB time=N/A bitrate=N/A speed=N/A elapsed=0:00:01.02    \nframe=    0 fps=0.0 q=0.0 size=       0KiB time=N/A bitrate=N/A speed=N/A elapsed=0:00:01.57    \nframe=    0 fps=0.0 q=0.0 size=       0KiB time=N/A bitrate=N/A speed=N/A elapsed=0:00:02.09    \nframe=    0 fps=0.0 q=0.0 size=       0KiB time=N/A bitrate=N/A speed=N/A elapsed=0:00:02.65    \nframe=    0 fps=0.0 q=0.0 size=       0KiB time=N/A bitrate=N/A speed=N/A elapsed=0:00:03.17    \nframe=    1 fps=0.3 q=33.0 size=       1KiB time=00:00:00.00 bitrate=N/A speed=   0x elapsed=0:00:03.68    \nframe=    1 fps=0.2 q=33.0 size=       1KiB time=00:00:00.00 bitrate=N/A speed=   0x elapsed=0:00:04.19    \nframe=    3 fps=0.6 q=46.0 size=       1KiB time=00:00:00.06 bitrate=  85.6kbits/s speed=0.0141x elapsed=0:00:04.72    \nframe=    6 fps=1.1 q=48.0 size=       1KiB time=00:00:00.16 bitrate=  34.2kbits/s speed=0.0319x elapsed=0:00:05.22    \nframe=    7 fps=1.2 q=45.0 size=       1KiB time=00:00:00.20 bitrate=  28.5kbits/s speed=0.0347x elapsed=0:00:05.75    \nframe=   11 fps=1.7 q=44.0 size=       1KiB time=00:00:00.33 bitrate=  17.1kbits/s speed=0.053x elapsed=0:00:06.28    \nframe=   15 fps=2.2 q=45.0 size=       1KiB time=00:00:00.46 bitrate=  12.2kbits/s speed=0.0685x elapsed=0:00:06.81    \nframe=   20 fps=2.7 q=48.0 size=       1KiB time=00:00:00.63 bitrate=   9.0kbits/s speed=0.0864x elapsed=0:00:07.33    \nframe=   22 fps=2.8 q=48.0 size=       1KiB time=00:00:00.70 bitrate=   8.1kbits/s speed=0.0892x elapsed=0:00:07.84    \nframe=   23 fps=2.8 q=47.0 size=       1KiB time=00:00:00.73 bitrate=   7.8kbits/s speed=0.0877x elapsed=0:00:08.35    \nframe=   27 fps=3.0 q=45.0 size=       1KiB time=00:00:00.86 bitrate=   6.6kbits/s speed=0.0977x elapsed=0:00:08.87    \nframe=   33 fps=3.5 q=34.0 size=       1KiB time=00:00:01.06 bitrate=   5.3kbits/s speed=0.114x elapsed=0:00:09.38    \nframe=   36 fps=3.6 q=50.0 size=       1KiB time=00:00:01.16 bitrate=   4.9kbits/s speed=0.118x elapsed=0:00:09.90    \nframe=   39 fps=3.7 q=48.0 size=       1KiB time=00:00:01.26 bitrate=   4.5kbits/s speed=0.122x elapsed=0:00:10.42    \nframe=   41 fps=3.7 q=41.0 size=       1KiB time=00:00:01.33 bitrate=   4.3kbits/s speed=0.122x elapsed=0:00:10.94    \nframe=   45 fps=3.9 q=44.0 size=       1KiB time=00:00:01.46 bitrate=   3.9kbits/s speed=0.128x elapsed=0:00:11.45    \nframe=   50 fps=4.2 q=53.0 size=       1KiB time=00:00:01.63 bitrate=   3.5kbits/s speed=0.136x elapsed=0:00:11.97    \nframe=   55 fps=4.4 q=51.0 size=       1KiB time=00:00:01.80 bitrate=   3.2kbits/s speed=0.144x elapsed=0:00:12.48    \nframe=   57 fps=4.4 q=43.0 size=       1KiB time=00:00:01.86 bitrate=   3.1kbits/s speed=0.143x elapsed=0:00:13.02    \nframe=   61 fps=4.5 q=47.0 size=       1KiB time=00:00:02.00 bitrate=   2.9kbits/s speed=0.148x elapsed=0:00:13.55    \nframe=   65 fps=4.6 q=33.0 size=       1KiB time=00:00:02.13 bitrate=   2.7kbits/s speed=0.152x elapsed=0:00:14.06    \nframe=   69 fps=4.7 q=48.0 size=       1KiB time=00:00:02.26 bitrate=   2.5kbits/s speed=0.156x elapsed=0:00:14.57    \nframe=   73 fps=4.8 q=46.0 size=       1KiB time=00:00:02.40 bitrate=   2.4kbits/s speed=0.159x elapsed=0:00:15.08    \nframe=   77 fps=4.9 q=48.0 size=       1KiB time=00:00:02.53 bitrate=   2.3kbits/s speed=0.162x elapsed=0:00:15.61    \nframe=   85 fps=5.3 q=52.0 size=       1KiB time=00:00:02.80 bitrate=   2.0kbits/s speed=0.174x elapsed=0:00:16.12    \nframe=   89 fps=5.3 q=47.0 size=       1KiB time=00:00:02.93 bitrate=   1.9kbits/s speed=0.176x elapsed=0:00:16.64    \nframe=   93 fps=5.4 q=51.0 size=       1KiB time=00:00:03.06 bitrate=   1.9kbits/s speed=0.179x elapsed=0:00:17.16    \nframe=   97 fps=5.5 q=39.0 size=       1KiB time=00:00:03.20 bitrate=   1.8kbits/s speed=0.181x elapsed=0:00:17.69    \nframe=  101 fps=5.5 q=53.0 size=       1KiB time=00:00:03.33 bitrate=   1.7kbits/s speed=0.183x elapsed=0:00:18.20    \nframe=  103 fps=5.5 q=55.0 size=       1KiB time=00:00:03.40 bitrate=   1.7kbits/s speed=0.182x elapsed=0:00:18.71    \nframe=  105 fps=5.5 q=50.0 size=       1KiB time=00:00:03.46 bitrate=   1.6kbits/s speed=0.18x elapsed=0:00:19.23    \nframe=  105 fps=5.3 q=50.0 size=       1KiB time=00:00:03.46 bitrate=   1.6kbits/s speed=0.175x elapsed=0:00:19.75    \nframe=  109 fps=5.4 q=50.0 size=       1KiB time=00:00:03.60 bitrate=   1.6kbits/s speed=0.178x elapsed=0:00:20.26    \nframe=  111 fps=5.3 q=52.0 size=       1KiB time=00:00:03.66 bitrate=   1.6kbits/s speed=0.176x elapsed=0:00:20.78    \nframe=  113 fps=5.3 q=43.0 size=       1KiB time=00:00:03.73 bitrate=   1.5kbits/s speed=0.175x elapsed=0:00:21.29    \nframe=  117 fps=5.4 q=47.0 size=       1KiB time=00:00:03.86 bitrate=   1.5kbits/s speed=0.177x elapsed=0:00:21.81    \nframe=  119 fps=5.3 q=50.0 size=       1KiB time=00:00:03.93 bitrate=   1.5kbits/s speed=0.176x elapsed=0:00:22.32    \nframe=  121 fps=5.3 q=49.0 size=       1KiB time=00:00:04.00 bitrate=   1.4kbits/s speed=0.175x elapsed=0:00:22.85    \nframe=  121 fps=5.2 q=49.0 size=       1KiB time=00:00:04.00 bitrate=   1.4kbits/s speed=0.171x elapsed=0:00:23.36    \nframe=  125 fps=5.2 q=50.0 size=       1KiB time=00:00:04.13 bitrate=   1.4kbits/s speed=0.173x elapsed=0:00:23.87    \nframe=  127 fps=5.2 q=53.0 size=       1KiB time=00:00:04.20 bitrate=   1.4kbits/s speed=0.172x elapsed=0:00:24.39    \nframe=  129 fps=5.2 q=41.0 size=       1KiB time=00:00:04.26 bitrate=   1.3kbits/s speed=0.171x elapsed=0:00:24.91    \nframe=  133 fps=5.2 q=53.0 size=       1KiB time=00:00:04.40 bitrate=   1.3kbits/s speed=0.173x elapsed=0:00:25.43    \nframe=  135 fps=5.2 q=53.0 size=       1KiB time=00:00:04.46 bitrate=   1.3kbits/s speed=0.172x elapsed=0:00:25.93    \nframe=  137 fps=5.2 q=50.0 size=       1KiB time=00:00:04.53 bitrate=   1.3kbits/s speed=0.171x elapsed=0:00:26.44    \nframe=  139 fps=5.2 q=53.0 size=       1KiB time=00:00:04.60 bitrate=   1.2kbits/s speed=0.171x elapsed=0:00:26.97    \nframe=  141 fps=5.1 q=53.0 size=       1KiB time=00:00:04.66 bitrate=   1.2kbits/s speed=0.17x elapsed=0:00:27.49    \n[out#0/matroska @ 0000027087f60d00] video:1330KiB audio:0KiB subtitle:0KiB other streams:0KiB global headers:0KiB muxing overhead: 0.106801%\nframe=  150 fps=5.4 q=53.0 Lsize=    1332KiB time=00:00:04.96 bitrate=2196.7kbits/s speed=0.178x elapsed=0:00:27.92    \n",
  "seconds": 28.28800940513611,
  "probe_out": {}
}